# xmcd CD database file
#
# Track frame offsets:
#	150
#	21717
#	38836
#	55792
#	73349
#	90012
#	108806
#	123528
#	138927
#	162409
#	184697
#	199715
#	226437
#	247908
#
# Disc length: 3542 seconds
#
# Revision: 0
# Processed by: cddbd v1.4PL0 Copyright (c) Steve Scherf et al.
# Submitted via: CDex 1.50Beta7
#
DISCID=ba0dd40e
DTITLE=Thomas Stelzer and The Bloody Rhythm Fingers - Dirty - Live
DYEAR=2002
DGENRE=Jazz
TTITLE0=Homesick Blues
TTITLE1=Don't seal
TTITLE2=Junko Partner
TTITLE3=Alberta
TTITLE4=Goin' to the Mardi Gras
TTITLE5=Honky Tonky Joe
TTITLE6=Oh, when Toussaint
TTITLE7=New York Town Blues
TTITLE8=St. James Infirmary Blues
TTITLE9=I'm so tired
TTITLE10=Willie and the Handjive
TTITLE11=Kansas City Blues
TTITLE12=Thinking of my woman
TTITLE13=When you smile
EXTD=YEAR: 2002
EXTT0=
EXTT1=
EXTT2=
EXTT3=
EXTT4=
EXTT5=
EXTT6=
EXTT7=
EXTT8=
EXTT9=
EXTT10=
EXTT11=
EXTT12=
EXTT13=
PLAYORDER=
